<svg width="21" height="20" viewBox="0 0 21 20" fill="none" xmlns="http://www.w3.org/2000/svg">
<path d="M4.91109 7.00632H0.911095C0.778487 7.00632 0.65131 7.059 0.557542 7.15277C0.463773 7.24654 0.411095 7.37371 0.411095 7.50632V19.5063C0.411095 19.6389 0.463773 19.7661 0.557542 19.8599C0.65131 19.9536 0.778487 20.0063 0.911095 20.0063H4.91109C5.0437 20.0063 5.17088 19.9536 5.26465 19.8599C5.35842 19.7661 5.41109 19.6389 5.41109 19.5063V7.50632C5.41109 7.37371 5.35842 7.24654 5.26465 7.15277C5.17088 7.059 5.0437 7.00632 4.91109 7.00632ZM4.41109 19.0063H1.41109V8.00632H4.41109V19.0063ZM15.4111 7.00632C14.3261 7.00632 13.2711 7.36432 12.4111 8.02532V7.50632C12.4111 7.37371 12.3584 7.24654 12.2646 7.15277C12.1709 7.059 12.0437 7.00632 11.9111 7.00632H7.91109C7.77849 7.00632 7.65131 7.059 7.55754 7.15277C7.46377 7.24654 7.41109 7.37371 7.41109 7.50632V19.5063C7.41109 19.6389 7.46377 19.7661 7.55754 19.8599C7.65131 19.9536 7.77849 20.0063 7.91109 20.0063H11.9111C12.0437 20.0063 12.1709 19.9536 12.2646 19.8599C12.3584 19.7661 12.4111 19.6389 12.4111 19.5063V14.0063C12.4111 13.6085 12.5691 13.227 12.8504 12.9457C13.1317 12.6644 13.5133 12.5063 13.9111 12.5063C14.3089 12.5063 14.6904 12.6644 14.9718 12.9457C15.2531 13.227 15.4111 13.6085 15.4111 14.0063V19.5063C15.4111 19.6389 15.4638 19.7661 15.5575 19.8599C15.6513 19.9536 15.7785 20.0063 15.9111 20.0063H19.9111C20.0437 20.0063 20.1709 19.9536 20.2646 19.8599C20.3584 19.7661 20.4111 19.6389 20.4111 19.5063V12.0063C20.4095 10.6807 19.8822 9.40988 18.9449 8.47254C18.0075 7.5352 16.7367 7.00791 15.4111 7.00632ZM19.4111 19.0063H16.4111V14.0063C16.4111 13.3433 16.1477 12.7074 15.6789 12.2386C15.21 11.7697 14.5741 11.5063 13.9111 11.5063C13.2481 11.5063 12.6122 11.7697 12.1433 12.2386C11.6745 12.7074 11.4111 13.3433 11.4111 14.0063V19.0063H8.41109V8.00632H11.4111V9.20932C11.4111 9.31288 11.4432 9.41389 11.5031 9.4984C11.5629 9.58291 11.6475 9.64676 11.7452 9.68111C11.8429 9.71547 11.9489 9.71865 12.0484 9.6902C12.148 9.66176 12.2363 9.6031 12.3011 9.52232C12.8146 8.8714 13.5185 8.39695 14.3145 8.16514C15.1105 7.93333 15.9591 7.95571 16.7418 8.22916C17.5245 8.50261 18.2024 9.01351 18.6809 9.6906C19.1594 10.3677 19.4146 11.1772 19.4111 12.0063V19.0063ZM3.27909 0.00832101C3.16157 0.00072609 3.0437 5.81737e-05 2.92609 0.00632092C2.55186 -0.0191424 2.17639 0.0325037 1.82293 0.15806C1.46947 0.283617 1.14555 0.48041 0.871247 0.736248C0.596939 0.992087 0.378083 1.30152 0.228234 1.64539C0.0783852 1.98925 0.000735446 2.36022 9.48649e-05 2.73532C-0.00301081 3.1065 0.0701691 3.47436 0.215097 3.81609C0.360024 4.15781 0.573609 4.46613 0.842608 4.72191C1.11161 4.97768 1.43028 5.17547 1.77887 5.30301C2.12747 5.43055 2.49854 5.48511 2.8691 5.46332H2.89709C3.25528 5.4884 3.61489 5.44269 3.9554 5.32879C4.29592 5.2149 4.61066 5.03505 4.88167 4.79951C5.15268 4.56398 5.37464 4.27737 5.53488 3.95605C5.69513 3.63473 5.79051 3.285 5.81559 2.92682C5.84068 2.56864 5.79496 2.20903 5.68107 1.86851C5.56717 1.528 5.38732 1.21325 5.15179 0.942244C4.91625 0.671237 4.62964 0.449275 4.30832 0.289032C3.98701 0.128789 3.63728 0.0334035 3.27909 0.00832101ZM3.2441 4.46632C3.12876 4.47699 3.01309 4.47599 2.89709 4.46332H2.8691C2.62842 4.48141 2.38662 4.44912 2.15913 4.36851C1.93164 4.2879 1.72346 4.16074 1.54788 3.99514C1.3723 3.82955 1.23317 3.62917 1.13939 3.40678C1.0456 3.1844 0.999218 2.9449 1.0032 2.70359C1.00718 2.46227 1.06143 2.22443 1.16249 2.00526C1.26356 1.78609 1.40922 1.5904 1.59016 1.43069C1.77111 1.27097 1.98337 1.15074 2.21339 1.07767C2.44342 1.00461 2.68615 0.980304 2.92609 1.00632C3.38492 0.964152 3.8417 1.10598 4.19596 1.4006C4.55022 1.69522 4.77292 2.1185 4.81509 2.57732C4.85726 3.03615 4.71544 3.49293 4.42082 3.84719C4.1262 4.20144 3.70292 4.42415 3.2441 4.46632Z" fill="black"/>
</svg>
