<svg width="24" height="24" viewBox="0 0 24 24" fill="none" xmlns="http://www.w3.org/2000/svg">
<path d="M23.912 17.56C23.4655 16.32 20.76 16.1467 19.4992 13.3067C19.4204 13.0933 19.4335 12.9467 19.6437 12.8133C20.6155 12.16 21.2985 11.8 21.6925 11.04C21.9814 10.4933 22.0208 9.85333 21.7976 9.26667C21.4955 8.45333 20.7338 7.93333 19.8013 7.93333C19.4729 7.93333 19.2103 8 19.0789 8.02667C19.0921 7.46667 19.0789 6.88 19.0264 6.29333C18.8557 4.25333 18.1465 3.17333 17.411 2.32C16.9776 1.82667 15.2571 0 12 0C8.7429 0 7.02242 1.82667 6.58902 2.32C5.85354 3.17333 5.14434 4.25333 4.9736 6.29333C4.9342 6.88 4.92107 7.46667 4.92107 8.02667C4.7766 7.98667 4.52706 7.93333 4.19873 7.93333C3.27938 7.93333 2.50451 8.44 2.20244 9.26667C1.97917 9.84 2.01857 10.4933 2.30751 11.04C2.71465 11.8133 3.38445 12.16 4.35633 12.8133C4.56646 12.96 4.5796 13.0933 4.5008 13.3067C3.22685 16.1467 0.534492 16.32 0.0879541 17.56C-0.109048 18.0933 0.0222867 18.6933 0.508225 19.2C1.25683 19.9867 2.64898 20.2267 2.92478 20.4133C3.14805 20.6 3.12178 21.16 3.75219 21.6133C4.25126 21.96 4.80287 21.9867 5.39387 22C7.11435 22.0667 7.49522 22.36 8.1519 22.7733C8.9793 23.2933 10.1088 24 12 24C13.8912 24 15.0207 23.2933 15.8481 22.7733C16.5048 22.36 16.8856 22.0667 18.6061 22C19.1971 21.9733 19.7487 21.96 20.2478 21.6133C20.8914 21.16 20.8651 20.6 21.0752 20.4133C21.351 20.2267 22.7432 19.9867 23.4918 19.2C23.9777 18.6933 24.109 18.0933 23.912 17.56ZM22.5593 18.2667C22.0734 18.7867 20.9045 18.9333 20.2872 19.36C19.6568 19.92 19.7619 20.3467 19.5123 20.52C19.3416 20.64 19.0395 20.6533 18.5667 20.68C16.728 20.7467 16.0582 21.0933 15.2571 21.6C13.379 22.7733 12.3283 22.6667 12 22.6667C11.6717 22.6667 10.621 22.7733 8.75604 21.5867C7.9549 21.08 7.29822 20.7467 5.44641 20.6667C4.9736 20.6533 4.67153 20.6267 4.5008 20.5067C4.25126 20.3333 4.34319 19.9067 3.72592 19.3467C3.09552 18.92 1.93977 18.7733 1.45383 18.2533C1.37503 18.1733 1.30937 18.0667 1.29623 18.0533C1.38817 17.92 1.8347 17.6533 2.16304 17.4667C3.18745 16.8533 4.76346 15.9467 5.72221 13.8C6.06368 12.8667 5.76161 12.12 5.0918 11.68C3.58145 10.7067 3.60772 10.6667 3.46325 10.4C3.41137 10.2978 3.38107 10.1857 3.37429 10.0709C3.3675 9.95609 3.38438 9.84113 3.42385 9.73333C3.58145 9.30667 4.01486 9.26667 4.18559 9.26667C4.43513 9.26667 4.422 9.28 6.24755 9.76C6.22128 7.89333 6.19501 7.29333 6.27381 6.41333C6.41828 4.66667 7.02242 3.84 7.56089 3.21333C7.92863 2.81333 9.36018 1.30667 12 1.33333C14.6398 1.30667 16.0714 2.81333 16.426 3.21333C16.9644 3.84 17.5686 4.66667 17.7131 6.41333C17.7919 7.29333 17.7656 7.89333 17.7393 9.76C19.578 9.28 19.5517 9.26667 19.8013 9.26667C19.9851 9.26667 20.4054 9.30667 20.563 9.73333C20.6549 9.96 20.6418 10.2 20.5236 10.4C20.3791 10.6667 20.4054 10.6933 18.9082 11.6933C18.2384 12.1333 17.9363 12.88 18.2778 13.8133C19.2365 15.96 20.8125 16.8667 21.837 17.48C22.1653 17.68 22.6118 17.9333 22.7038 18.0667C22.7038 18.08 22.625 18.1867 22.5593 18.2667Z" fill="black"/>
</svg>
